<svg width="177" height="41" viewBox="0 0 177 41" fill="none" xmlns="http://www.w3.org/2000/svg">
<path d="M121.129 28.371C120.694 27.8532 120.106 27.5296 119.496 27.2707C117.731 26.5803 115.967 25.8683 114.203 25.1779C112.046 24.3365 109.912 23.4735 107.755 22.6321C107.211 22.4163 106.666 22.2653 106.143 22.2653C104.706 22.2437 103.791 23.1283 103.813 24.5091C103.813 25.07 103.965 25.6094 104.161 26.1272C104.662 27.4001 105.185 28.673 105.686 29.946C106.274 31.3915 106.84 32.8154 107.429 34.261C107.908 35.4692 108.387 36.6558 108.888 37.864C109.128 38.4681 109.476 39.029 109.977 39.4821C110.761 40.1725 111.807 40.2372 112.678 39.6547C113.157 39.3311 113.528 38.878 113.811 38.3818C113.985 38.0797 114.137 37.7561 114.312 37.4541C115.706 35.3181 117.47 33.549 119.757 32.3624C120.323 32.0819 120.824 31.7151 121.195 31.1973C121.892 30.2696 121.848 29.1908 121.129 28.371ZM119.801 30.0538C119.605 30.248 119.409 30.4638 119.169 30.5932C118.799 30.8305 118.363 31.0031 117.993 31.2405C115.662 32.686 113.811 34.563 112.504 36.9578C112.329 37.2815 112.155 37.6051 111.916 37.8856C111.545 38.3386 111.262 38.3171 110.935 37.8424C110.761 37.5835 110.609 37.303 110.5 37.0226C110.086 35.987 109.65 34.9514 109.236 33.8942C108.104 31.111 106.993 28.3278 105.86 25.5231C105.73 25.1779 105.642 24.8111 105.534 24.4444C105.555 24.4444 105.555 24.4228 105.577 24.4228C105.577 24.0776 105.664 23.9481 106.035 23.9913C106.383 24.0344 106.732 24.0992 107.058 24.2286C109.432 25.1563 111.807 26.1056 114.203 27.0549C115.575 27.5943 116.925 28.1337 118.298 28.673C118.646 28.8025 118.995 28.9535 119.321 29.1261C119.496 29.2124 119.648 29.3634 119.801 29.5145C119.931 29.7086 119.953 29.9028 119.801 30.0538Z" fill="white"/>
<path d="M106.187 24.0345V7.11974H102.375V12.7508C102.375 15.9439 102.353 19.4175 102.528 21.6181H102.462C101.286 19.4175 97.7573 14.7573 92.5732 7.11974H87.6723V26.6235H91.4841V19.8706C91.4841 16.4186 91.4841 13.6354 91.3316 11.1974H91.397C92.6385 13.4412 99.4127 23.3873 101.613 26.6235H106.23V26.3215C107.232 28.8457 108.256 31.37 109.28 33.8943C108.714 34.0669 108.104 34.1748 107.472 34.1963C107.363 34.1963 107.276 34.1963 107.167 34.1963H86.7792C82.8585 34.1963 79.7001 31.0464 79.7001 27.1845V7.01187C79.7001 3.12837 82.8585 0 86.7792 0H107.167C111.088 0 114.246 3.14995 114.246 7.01187V27.0982C111.872 26.1489 109.498 25.2211 107.102 24.2718C106.775 24.164 106.492 24.0777 106.187 24.0345Z" fill="white"/>
<path d="M137.335 16.8069C137.335 22.2438 133.654 27.0334 126.662 27.0334C120.084 27.0334 116.228 22.5243 116.228 16.8069C116.228 11.4347 120.28 6.68823 126.836 6.68823C133.393 6.68823 137.335 11.4563 137.335 16.8069ZM120.607 16.7637C120.607 20.6041 122.719 23.7972 126.88 23.7972C131.04 23.7972 132.957 20.3883 132.957 16.8716C132.957 13.3549 130.975 9.96763 126.684 9.96763C122.393 9.96763 120.607 13.2039 120.607 16.7637Z" fill="white"/>
<path d="M146.026 10.4422H138.903V7.11963H157.266V10.4206H150.165V26.6234H146.026V10.4422Z" fill="white"/>
<path d="M175.78 18.1229H164.519V23.3009H177L176.499 26.6234H160.38V7.11963H176.368V10.4422H164.519V14.8003H175.78V18.1229Z" fill="white"/>
<path d="M0 8.62988H9.889C14.5721 8.62988 17.3602 10.9816 17.3602 14.6277C17.3602 18.5544 14.5721 20.8629 9.889 20.8629H4.16035V28.1121H0V8.62988ZM4.16035 17.6266H9.49692C11.7405 17.6266 13.2216 16.9147 13.2216 14.6925C13.2216 12.9017 12.0672 11.8446 9.49692 11.8446H4.16035V17.6266Z" fill="white"/>
<path d="M40.9936 20.3235V28.1337H36.8986V8.62988H47.2014C51.5796 8.62988 54.2152 10.7227 54.2152 14.1099C54.2152 16.5695 52.8212 18.1229 50.7301 18.727C51.6885 19.0506 53.6924 19.892 53.6924 23.3656V24.2933C53.6924 25.6741 53.6707 27.2275 53.932 28.1121H49.6846C49.3578 27.2491 49.3578 25.9977 49.3578 24.056V23.4087C49.3578 21.1434 48.5083 20.3019 45.4371 20.3019L40.9936 20.3235ZM40.9936 17.1951H46.243C48.8133 17.1951 49.9677 16.289 49.9677 14.4336C49.9677 12.7076 48.7915 11.7583 46.2866 11.7583H40.9718L40.9936 17.1951Z" fill="white"/>
<path d="M63.4508 11.9309H56.3281V8.62988H74.6903V11.9309H67.5894V28.1337H63.4508V11.9309Z" fill="white"/>
<path d="M19.778 28.3494C19.1246 28.3494 18.6018 28.1337 18.2097 27.7453C17.7523 27.2707 17.578 26.6018 17.7087 25.8036C17.7741 25.3721 17.9048 24.919 18.1008 24.4659C19.9305 20.1509 21.7819 15.8575 23.5463 11.7151C23.6988 11.3699 23.8948 11.0679 24.0473 10.8305C24.1344 10.7227 24.1997 10.5932 24.2433 10.5069L24.3087 10.3775L24.3958 10.2696C24.6789 9.88123 25.0928 9.51445 25.5284 9.42815L26.5958 9.2124L26.9878 9.85965C27.1621 9.9891 27.3146 10.1186 27.4453 10.3127C27.7938 10.7442 28.0769 11.1973 28.273 11.6288C30.1462 15.8791 32.0412 20.1941 33.6749 23.905C33.8274 24.2502 34.0234 24.7032 34.1759 25.221C34.3066 25.6525 34.3066 26.0409 34.3066 26.3429C34.3283 27.4001 33.5224 28.2415 32.4551 28.2631C32.0848 28.2847 31.6274 28.2847 31.1482 28.1768C30.8432 28.1121 30.5383 28.0258 30.2769 27.9395C30.0591 27.8748 29.863 27.81 29.6888 27.7669C26.9225 27.1412 24.178 27.2275 21.5641 28.0042H21.5423C21.1067 28.1337 20.6275 28.2847 20.083 28.3278C20.0176 28.3494 19.8869 28.3494 19.778 28.3494ZM25.9641 13.8079C24.3958 17.4325 22.8057 21.1865 21.1938 24.9621C24.178 24.1639 27.271 24.0991 30.4076 24.8111C30.5601 24.8543 30.6908 24.8758 30.8215 24.919C29.3621 21.5317 27.6631 17.6698 25.9641 13.8079Z" fill="white"/>
</svg>
