<?xml version="1.0" encoding="UTF-8"?>
<svg id="Layer_2" data-name="Layer 2" xmlns="http://www.w3.org/2000/svg" viewBox="0 0 193.07 185.39">
  <defs>
    <style>
      .cls-1 {
        stroke-width: 0px;
      }
    </style>
  </defs>
  <g id="Layer_1-2" data-name="Layer 1">
    <g>
      <path class="cls-1" d="M190.44,131.46c-2.05-2.37-4.67-3.92-7.54-5.07-8.09-3.25-16.18-6.5-24.27-9.74-9.86-3.95-19.72-7.9-29.58-11.85-2.46-.98-4.99-1.7-7.41-1.71-6.61-.12-10.78,4.01-10.74,10.37.01,2.62.67,5.1,1.63,7.51,2.34,5.89,4.69,11.77,7.04,17.66,2.66,6.66,5.32,13.32,7.98,19.97,2.22,5.56,4.44,11.12,6.67,16.68,1.14,2.84,2.69,5.42,5.01,7.47,3.62,3.19,8.37,3.51,12.38.83,2.24-1.5,3.88-3.56,5.22-5.87.82-1.42,1.46-2.94,2.35-4.32,6.41-9.94,14.49-18.11,25.05-23.64,2.56-1.34,4.88-3,6.64-5.35,3.08-4.09,2.92-9.08-.43-12.94ZM184.36,139.25c-.88.92-1.81,1.85-2.87,2.53-1.73,1.1-3.65,1.91-5.39,3-10.66,6.67-19.16,15.39-25.2,26.48-.82,1.49-1.63,3.02-2.69,4.33-1.69,2.07-2.98,2.01-4.53-.16-.83-1.16-1.51-2.47-2.04-3.8-1.93-4.83-3.87-9.65-5.79-14.48-5.18-12.91-10.33-25.83-15.46-38.76-.63-1.6-.98-3.3-1.46-4.96.07-.02.15-.05.23-.07,0-1.64.43-2.2,2.06-2,1.58.18,3.19.53,4.66,1.11,10.92,4.34,21.84,8.7,32.75,13.08,6.26,2.51,12.52,5.02,18.78,7.53,1.58.63,3.15,1.3,4.65,2.1.83.44,1.54,1.15,2.22,1.82.69.68.75,1.56.08,2.25Z"/>
      <path class="cls-1" d="M121.84,111.44V33.03h-17.47v26.1c0,14.81-.13,30.87.73,41.1h-.26c-5.49-10.28-21.72-31.81-45.49-67.2h-22.53v90.4h17.47v-31.31c0-16.03,0-28.87-.73-40.19h.26c5.73,10.4,36.76,56.55,46.86,71.5h21.16v-1.39c4.65,11.71,9.32,23.42,14.01,35.11-2.64.83-5.42,1.33-8.3,1.45-.47.02-.94.03-1.42.03H32.5c-17.95,0-32.5-14.55-32.5-32.5V32.5C0,14.55,14.55,0,32.5,0h93.63c17.95,0,32.5,14.55,32.5,32.5v93.05c-10.91-4.38-21.83-8.74-32.75-13.08-1.28-.5-2.66-.83-4.04-1.03Z"/>
    </g>
  </g>
</svg>