<?xml version="1.0" encoding="UTF-8"?>
<svg id="Layer_2" data-name="Layer 2" xmlns="http://www.w3.org/2000/svg" viewBox="0 0 812.64 185.39">
  <defs>
    <style>
      .cls-1 {
        stroke-width: 0px;
      }

      .cls-2 {
        fill: none;
        stroke: #000;
        stroke-miterlimit: 10;
        stroke-width: 14px;
      }
    </style>
  </defs>
  <g id="Layer_1-2" data-name="Layer 1">
    <g>
      <path class="cls-1" d="M556.08,131.46c-2.05-2.37-4.67-3.92-7.54-5.07-8.09-3.25-16.18-6.5-24.27-9.74-9.86-3.95-19.72-7.9-29.58-11.85-2.46-.98-4.99-1.7-7.41-1.71-6.61-.12-10.78,4.01-10.74,10.37.01,2.62.67,5.1,1.63,7.51,2.34,5.89,4.69,11.77,7.04,17.66,2.66,6.66,5.32,13.32,7.98,19.97,2.22,5.56,4.44,11.12,6.67,16.68,1.14,2.84,2.69,5.42,5.01,7.47,3.62,3.19,8.37,3.51,12.38.83,2.24-1.5,3.88-3.56,5.22-5.87.82-1.42,1.46-2.94,2.35-4.32,6.41-9.94,14.49-18.11,25.05-23.64,2.56-1.34,4.88-3,6.64-5.35,3.08-4.09,2.92-9.08-.43-12.94ZM550,139.25c-.88.92-1.81,1.85-2.87,2.53-1.73,1.1-3.65,1.91-5.39,3-10.66,6.67-19.16,15.39-25.2,26.48-.82,1.49-1.63,3.02-2.69,4.33-1.69,2.07-2.98,2.01-4.53-.16-.83-1.16-1.51-2.47-2.04-3.8-1.93-4.83-3.87-9.65-5.79-14.48-5.18-12.91-10.33-25.83-15.46-38.76-.63-1.6-.98-3.3-1.46-4.96.07-.02.15-.05.23-.07,0-1.64.43-2.2,2.06-2,1.58.18,3.19.53,4.66,1.11,10.92,4.34,21.84,8.7,32.75,13.08,6.26,2.51,12.52,5.02,18.78,7.53,1.58.63,3.15,1.3,4.65,2.1.83.44,1.54,1.15,2.22,1.82.69.68.75,1.56.08,2.25Z"/>
      <g>
        <path class="cls-1" d="M487.48,111.44V33.03h-17.47v26.1c0,14.81-.13,30.87.73,41.1h-.26c-5.49-10.28-21.72-31.81-45.49-67.2h-22.53v90.4h17.47v-31.31c0-16.03,0-28.87-.73-40.19h.26c5.73,10.4,36.76,56.55,46.86,71.5h21.16v-1.39c4.65,11.71,9.32,23.42,14.01,35.11-2.64.83-5.42,1.33-8.3,1.45-.47.02-.94.03-1.42.03h-93.63c-17.95,0-32.5-14.55-32.5-32.5V32.5c0-17.95,14.55-32.5,32.5-32.5h93.63c17.95,0,32.5,14.55,32.5,32.5v93.05c-10.91-4.38-21.83-8.74-32.75-13.08-1.28-.5-2.66-.83-4.04-1.03Z"/>
        <g>
          <path class="cls-1" d="M630.52,77.93c0,25.21-16.89,47.42-48.95,47.42-30.16,0-47.89-20.94-47.89-47.37,0-24.93,18.58-46.87,48.7-46.87s48.14,22.03,48.14,46.82ZM553.71,77.68c0,17.85,9.7,32.6,28.85,32.6s27.92-15.82,27.92-32.1-9.09-32.01-28.78-32.01-27.99,15.03-27.99,31.51Z"/>
          <path class="cls-1" d="M670.44,48.36h-32.67v-15.33h84.27v15.33h-32.58v75.07h-19.02V48.36Z"/>
          <path class="cls-1" d="M807.01,84.01h-51.66v24.03h57.29l-2.27,15.38h-74.01V33.03h73.41v15.38h-54.43v20.22h51.66v15.38Z"/>
        </g>
        <g>
          <path class="cls-1" d="M0,39.99h45.38c21.49,0,34.25,10.94,34.25,27.83,0,18.25-12.85,28.94-34.35,28.94h-26.21v33.63H0V39.99ZM19.07,81.74h24.47c10.3,0,17.08-3.34,17.08-13.62,0-8.26-5.27-13.21-17.08-13.21h-24.47v26.84Z"/>
          <path class="cls-1" d="M188.22,94.22v36.16h-18.81V39.99h47.28c20.1,0,32.18,9.71,32.18,25.41,0,11.43-6.35,18.58-15.98,21.44,4.42,1.52,13.64,5.39,13.64,21.49v4.34c0,6.44-.09,13.6,1.11,17.72h-19.47c-1.46-3.97-1.52-9.8-1.52-18.75v-2.98c0-10.49-3.94-14.43-17.97-14.43h-20.45ZM188.22,79.7h24.1c11.77,0,17.13-4.2,17.13-12.83,0-8.02-5.45-12.36-16.85-12.36h-24.39v25.19Z"/>
          <path class="cls-1" d="M291.3,55.32h-32.67v-15.33h84.27v15.33h-32.58v75.07h-19.02V55.32Z"/>
        </g>
        <path class="cls-2" d="M117.58,52.07c1.3-1.3,2.07-1.4,3.21.03,1.11,1.39,2.12,2.93,2.83,4.55,8.29,18.96,16.52,37.94,24.74,56.92.76,1.74,1.48,3.51,2.04,5.33.31,1,.32,2.12.33,3.19.02,1.09-.63,1.82-1.71,1.85-1.42.04-2.89.05-4.27-.25-2.24-.49-4.4-1.35-6.64-1.86-13.71-3.09-27.34-2.84-40.87,1.22-1.82.55-3.67,1.12-5.54,1.32-2.97.32-3.95-.75-3.48-3.68.25-1.58.75-3.16,1.37-4.64,8.3-19.69,16.63-39.36,25-59.02.75-1.77,2.06-3.27,2.98-4.97,2.94-3.52-.08-.04,0,0Z"/>
      </g>
    </g>
  </g>
</svg>