<?xml version="1.0" encoding="utf-8"?>
<!-- Generator: Adobe Illustrator 28.1.0, SVG Export Plug-In . SVG Version: 6.00 Build 0)  -->
<svg version="1.1" id="Layer_2_00000065795417567650007700000001581265669373986239_"
	 xmlns="http://www.w3.org/2000/svg" xmlns:xlink="http://www.w3.org/1999/xlink" x="0px" y="0px" viewBox="0 0 812.6 185.4"
	 style="enable-background:new 0 0 812.6 185.4;" xml:space="preserve">
<g id="Layer_1-2">
	<g>
		<path d="M556.1,131.5c-2-2.4-4.7-3.9-7.5-5.1c-8.1-3.2-16.2-6.5-24.3-9.7c-9.9-3.9-19.7-7.9-29.6-11.8c-2.5-1-5-1.7-7.4-1.7
			c-6.6-0.1-10.8,4-10.7,10.4c0,2.6,0.7,5.1,1.6,7.5c2.3,5.9,4.7,11.8,7,17.7c2.7,6.7,5.3,13.3,8,20c2.2,5.6,4.4,11.1,6.7,16.7
			c1.1,2.8,2.7,5.4,5,7.5c3.6,3.2,8.4,3.5,12.4,0.8c2.2-1.5,3.9-3.6,5.2-5.9c0.8-1.4,1.5-2.9,2.3-4.3c6.4-9.9,14.5-18.1,25-23.6
			c2.6-1.3,4.9-3,6.6-5.4C559.6,140.3,559.4,135.3,556.1,131.5L556.1,131.5z M550,139.3c-0.9,0.9-1.8,1.9-2.9,2.5
			c-1.7,1.1-3.7,1.9-5.4,3c-10.7,6.7-19.2,15.4-25.2,26.5c-0.8,1.5-1.6,3-2.7,4.3c-1.7,2.1-3,2-4.5-0.2c-0.8-1.2-1.5-2.5-2-3.8
			c-1.9-4.8-3.9-9.6-5.8-14.5c-5.2-12.9-10.3-25.8-15.5-38.8c-0.6-1.6-1-3.3-1.5-5c0.1,0,0.1-0.1,0.2-0.1c0-1.6,0.4-2.2,2.1-2
			c1.6,0.2,3.2,0.5,4.7,1.1c10.9,4.3,21.8,8.7,32.8,13.1c6.3,2.5,12.5,5,18.8,7.5c1.6,0.6,3.2,1.3,4.7,2.1c0.8,0.4,1.5,1.1,2.2,1.8
			C550.6,137.7,550.7,138.6,550,139.3L550,139.3z"/>
		<g>
			<path d="M487.5,111.4V33H470v26.1c0,14.8-0.1,30.9,0.7,41.1h-0.3C465,90,448.8,68.4,425,33h-22.5v90.4h17.5V92.1
				c0-16,0-28.9-0.7-40.2h0.3c5.7,10.4,36.8,56.5,46.9,71.5h21.2V122c4.6,11.7,9.3,23.4,14,35.1c-2.6,0.8-5.4,1.3-8.3,1.4
				c-0.5,0-0.9,0-1.4,0h-93.6c-18,0-32.5-14.6-32.5-32.5V32.5c0-18,14.5-32.5,32.5-32.5h93.6c18,0,32.5,14.6,32.5,32.5v93.1
				c-10.9-4.4-21.8-8.7-32.8-13.1C490.2,112,488.9,111.6,487.5,111.4z"/>
			<g>
				<path d="M630.5,77.9c0,25.2-16.9,47.4-49,47.4c-30.2,0-47.9-20.9-47.9-47.4c0-24.9,18.6-46.9,48.7-46.9S630.5,53.1,630.5,77.9z
					 M553.7,77.7c0,17.8,9.7,32.6,28.8,32.6s27.9-15.8,27.9-32.1s-9.1-32-28.8-32S553.7,61.2,553.7,77.7L553.7,77.7z"/>
				<path d="M670.4,48.4h-32.7V33H722v15.3h-32.6v75.1h-19V48.4z"/>
				<path d="M807,84h-51.7v24h57.3l-2.3,15.4h-74V33h73.4v15.4h-54.4v20.2H807L807,84L807,84z"/>
			</g>
			<g>
				<path d="M0,40h45.4c21.5,0,34.3,10.9,34.3,27.8c0,18.2-12.8,28.9-34.3,28.9H19.1v33.6H0V40z M19.1,81.7h24.5
					c10.3,0,17.1-3.3,17.1-13.6c0-8.3-5.3-13.2-17.1-13.2H19.1L19.1,81.7L19.1,81.7z"/>
				<path d="M188.2,94.2v36.2h-18.8V40h47.3c20.1,0,32.2,9.7,32.2,25.4c0,11.4-6.4,18.6-16,21.4c4.4,1.5,13.6,5.4,13.6,21.5v4.3
					c0,6.4-0.1,13.6,1.1,17.7h-19.5c-1.5-4-1.5-9.8-1.5-18.8v-3c0-10.5-3.9-14.4-18-14.4L188.2,94.2L188.2,94.2z M188.2,79.7h24.1
					c11.8,0,17.1-4.2,17.1-12.8c0-8-5.4-12.4-16.9-12.4h-24.4L188.2,79.7L188.2,79.7z"/>
				<path d="M291.3,55.3h-32.7V40h84.3v15.3h-32.6v75.1h-19L291.3,55.3L291.3,55.3z"/>
			</g>
			<g>
				<path d="M90.8,131.4c-3,0-5.4-1-7.2-2.8c-2.1-2.2-2.9-5.3-2.3-9c0.3-2,0.9-4.1,1.8-6.2c8.4-20,16.9-39.9,25-59.1
					c0.7-1.6,1.6-3,2.3-4.1c0.4-0.5,0.7-1.1,0.9-1.5l0.3-0.6l0.4-0.5c0,0,0,0,0,0c1.3-1.8,3.2-3.5,5.2-3.9l4.9-1l1.8,3
					c0.8,0.6,1.5,1.2,2.1,2.1c1.6,2,2.9,4.1,3.8,6.1c8.6,19.7,17.3,39.7,24.8,56.9c0.7,1.6,1.6,3.7,2.3,6.1c0.6,2,0.6,3.8,0.6,5.2
					c0.1,4.9-3.6,8.8-8.5,8.9c-1.7,0.1-3.8,0.1-6-0.4c-1.4-0.3-2.8-0.7-4-1.1c-1-0.3-1.9-0.6-2.7-0.8c-12.7-2.9-25.3-2.5-37.3,1.1
					l-0.1,0c-2,0.6-4.2,1.3-6.7,1.5C91.9,131.4,91.3,131.4,90.8,131.4z M143.7,122.1C143.7,122.2,143.7,122.2,143.7,122.1
					C143.7,122.2,143.7,122.2,143.7,122.1z M119.2,64c-7.2,16.8-14.5,34.2-21.9,51.7c13.7-3.7,27.9-4,42.3-0.7
					c0.7,0.2,1.3,0.3,1.9,0.5C134.8,99.8,127,81.9,119.2,64z"/>
			</g>
		</g>
	</g>
</g>
</svg>
